<svg width="512" height="512" viewBox="0 0 512 512" fill="none" xmlns="http://www.w3.org/2000/svg">
<g clip-path="url(#clip0_132_2272)">
<path d="M256 512C397.385 512 512 397.385 512 256C512 114.615 397.385 0 256 0C114.615 0 0 114.615 0 256C0 397.385 114.615 512 256 512Z" fill="#FEDD31"/>
<path d="M80.979 322.855L269.754 511.63C404.743 504.483 512 392.77 512 256C512 249.846 511.769 243.747 511.342 237.701L393.776 120.136L244.526 216.863L90 172L198.451 280.451L208 319L114.664 301.024L80.979 322.855Z" fill="#FCC10C"/>
<path d="M364.894 390.973L336.012 224.765L289.147 177.9L122.939 149.018L86.428 172.45L224.844 242.203L271.709 289.068L341.462 427.484L364.894 390.973Z" fill="#BEC3D2"/>
<path d="M364.894 390.973L336.012 224.765L312.58 201.332L248.276 265.636L271.709 289.068L341.462 427.484L364.894 390.973Z" fill="#AFB4C8"/>
<path d="M210.13 350.647L163.265 303.782L108.771 295.063L80.978 322.855L152.502 346.464L167.448 361.41L191.057 432.934L218.849 405.142L210.13 350.647Z" fill="#BEC3D2"/>
<path d="M210.13 350.647L186.697 327.214L159.975 353.937L167.448 361.41L191.057 432.934L218.849 405.142L210.13 350.647Z" fill="#AFB4C8"/>
<path d="M210.13 350.647L147.461 366.45L163.264 303.781L346.91 120.135C359.851 107.194 380.834 107.194 393.775 120.135C406.716 133.076 406.716 154.059 393.775 167L210.13 350.647Z" fill="#DCE1EB"/>
<path d="M210.13 350.647L147.461 366.45L393.776 120.135C406.717 133.076 406.717 154.059 393.776 167L210.13 350.647Z" fill="#CDD2E1"/>
<path d="M355.087 172.196L341.725 158.834L355.087 145.472L368.449 158.834L355.087 172.196Z" fill="#E9EDF5"/>
<path d="M355.084 172.185L348.404 165.504L361.766 152.142L368.447 158.823L355.084 172.185Z" fill="#DCE1EB"/>
</g>
<defs>
<clipPath id="clip0_132_2272">
<rect width="512" height="512" fill="white"/>
</clipPath>
</defs>
</svg>
